<svg xmlns="http://www.w3.org/2000/svg" width="268.75" height="56.844" viewBox="0 0 268.75 56.844">
  <defs>
    <style>
      .cls-1 {
        fill: #6f42c1;
        fill-rule: evenodd;
      }
    </style>
  </defs>
  <path id="WIISARI" class="cls-1" d="M82.808,24H75.3L62.441,61.194,47.925,24H40.991l5.561,14.3L37.525,61.989,24.019,24H15.858l20.8,54.456L50.019,47.111l12.206,31.2Zm10.4-.217V76h7.005V23.783H93.208Zm22.027,0V76h7.006V23.783h-7.006ZM164.273,33.1l2.673-5.417a30.71,30.71,0,0,0-15.673-4.189A17.1,17.1,0,0,0,140.115,27.5a12.611,12.611,0,0,0-4.3,9.931,11.25,11.25,0,0,0,2.094,6.969,15.5,15.5,0,0,0,5.02,4.369,59.682,59.682,0,0,0,7.33,3.25,28.549,28.549,0,0,1,7.4,4.008,7,7,0,0,1,2.636,5.742,7.3,7.3,0,0,1-3.142,6.428,12.591,12.591,0,0,1-7.33,2.167,20.03,20.03,0,0,1-7.006-1.408,25.271,25.271,0,0,1-6.427-3.43l-3.106,5.561a31.646,31.646,0,0,0,7.872,3.936,28.245,28.245,0,0,0,9.317,1.553,19.88,19.88,0,0,0,9.064-1.95,14.474,14.474,0,0,0,5.958-5.344A14.153,14.153,0,0,0,167.6,61.7a14.345,14.345,0,0,0-1.842-7.619,13.936,13.936,0,0,0-4.622-4.694,37.274,37.274,0,0,0-6.825-3.142,37.814,37.814,0,0,1-8.342-4.081,6.5,6.5,0,0,1-.433-10.544,10.821,10.821,0,0,1,6.752-1.914,21.224,21.224,0,0,1,6,.939,31.339,31.339,0,0,1,5.994,2.456h0ZM212.083,76h8.089L197.35,21.617h-0.433L174.1,76h6.933l5.561-13.722h20.078ZM189.117,56.211l7.728-19.067,7.438,19.067H189.117ZM266.827,76L253.683,54.983a13.866,13.866,0,0,0,6.536-6.139,18.778,18.778,0,0,0,2.13-8.883,15.687,15.687,0,0,0-2.383-8.775,14.974,14.974,0,0,0-6.572-5.525,23.085,23.085,0,0,0-9.534-1.878H229.921V76h7.006V56.789h7.728a15.163,15.163,0,0,0,1.733-.072L258.666,76h8.161ZM244.51,50h-7.583V30.5h8.089a10.337,10.337,0,0,1,5.742,1.481A8.941,8.941,0,0,1,254.08,35.7a10.659,10.659,0,0,1,1.047,4.55,10.242,10.242,0,0,1-2.492,6.789Q250.144,50,244.51,50h0Zm33.077-26.217V76h7.006V23.783h-7.006Z" transform="translate(-15.844 -21.625)"/>
</svg>
